<?xml version="1.0" encoding="UTF-8" standalone="no"?>
<svg
   xmlns:dc="http://purl.org/dc/elements/1.1/"
   xmlns:cc="http://creativecommons.org/ns#"
   xmlns:rdf="http://www.w3.org/1999/02/22-rdf-syntax-ns#"
   xmlns:svg="http://www.w3.org/2000/svg"
   xmlns="http://www.w3.org/2000/svg"
   id="svg14"
   version="1.1"
   height="24"
   width="24">
  <metadata
     id="metadata20">
    <rdf:RDF>
      <cc:Work
         rdf:about="">
        <dc:format>image/svg+xml</dc:format>
        <dc:type
           rdf:resource="http://purl.org/dc/dcmitype/StillImage" />
        <dc:title></dc:title>
      </cc:Work>
    </rdf:RDF>
  </metadata>
  <defs
     id="defs18" />
  <g
     id="g5">
    <title
       id="title2">background</title>
    <rect
       x="-1"
       y="-1"
       width="582"
       height="402"
       id="canvas_background"
       fill="none" />
  </g>
  <g
     id="g12">
    <title
       id="title7">Layer 1</title>
    <path
       d="m19.735357,23.5l-15.4,0c-2.1,0 -3.8,-1.7 -3.8,-3.8l0,-15.4c0,-2.1 1.7,-3.8 3.8,-3.8l15.3,0c2.1,0 3.8,1.7 3.8,3.8l0,15.3c0.1,2.2 -1.6,3.9 -3.7,3.9zm-15.4,-22c-1.6,0 -2.8,1.3 -2.8,2.8l0,15.3c0,1.6 1.3,2.8 2.8,2.8l15.3,0c1.6,0 2.8,-1.3 2.8,-2.8l0,-15.3c0,-1.6 -1.3,-2.8 -2.8,-2.8l-15.3,0z"
       id="svg_3" />
    <path
       fill="none"
       stroke="null"
       stroke-width="null"
       stroke-opacity="null"
       fill-opacity="null"
       id="svg_9"
       d="m9.949286,9.328326c0.035357,0.070714 0.106071,0.2475 0.141429,0.636429c0.035357,0.388928 0.021871,0.814451 0.070714,1.272857c0.083178,0.780638 0.144966,1.315118 0.282857,1.873929c0.115211,0.466905 0.353572,0.919286 0.495,1.202143c0.176786,0.353572 0.254077,0.413416 0.318214,0.459643c0.040565,0.029237 0.106071,0.035357 0.212143,0.035357c0.176786,0 0.467929,-0.00731 0.990001,-0.176785c0.468406,-0.152054 0.822848,-0.260245 1.202143,-0.601071c0.205404,-0.184572 0.212143,-0.353571 0.247499,-0.424286l0,-0.035357" />
    <text
       id="text957"
       y="21.457626"
       x="1.987443"
       style="font-style:normal;font-weight:normal;font-size:26.6667px;line-height:1.25;font-family:sans-serif;fill:#000000;fill-opacity:1;stroke:none"
       xml:space="preserve"><tspan
         y="21.457626"
         x="1.987443"
         id="tspan955">N</tspan></text>
  </g>
</svg>
