<?xml version="1.0" encoding="UTF-8"?>
<svg xmlns="http://www.w3.org/2000/svg"
     xmlns:xlink="http://www.w3.org/1999/xlink"
     xmlns:gadfly="http://www.gadflyjl.org/ns"
     version="1.2"
     width="141.42mm" height="100mm" viewBox="0 0 141.42 100"
     stroke="none"
     fill="#000000"
     stroke-width="0.3"
     font-size="3.88"
>
<defs>
  <marker id="arrow" markerWidth="15" markerHeight="7" refX="5" refY="3.5" orient="auto" markerUnits="strokeWidth">
    <path d="M0,0 L15,3.5 L0,7 z" stroke="context-stroke" fill="context-stroke"/>
  </marker>
</defs>
<g class="plotroot xscalable yscalable" id="img-4096eb31-1">
  <g font-size="3.88" font-family="'PT Sans','Helvetica Neue','Helvetica',sans-serif" fill="#564A55" stroke="#000000" stroke-opacity="0.000" id="img-4096eb31-2">
    <g transform="translate(78.03,88.39)">
      <g class="primitive">
        <text text-anchor="middle" dy="0.6em">Month</text>
      </g>
    </g>
  </g>
  <g class="guide xlabels" font-size="2.82" font-family="'PT Sans Caption','Helvetica Neue','Helvetica',sans-serif" fill="#6C606B" id="img-4096eb31-3">
    <g transform="translate(25.65,81.72)">
      <g class="primitive">
        <text text-anchor="middle" dy="0.6em">Aug</text>
      </g>
    </g>
    <g transform="translate(34.55,81.72)">
      <g class="primitive">
        <text text-anchor="middle" dy="0.6em">Sep</text>
      </g>
    </g>
    <g transform="translate(43.16,81.72)">
      <g class="primitive">
        <text text-anchor="middle" dy="0.6em">Oct</text>
      </g>
    </g>
    <g transform="translate(52.05,81.72)">
      <g class="primitive">
        <text text-anchor="middle" dy="0.6em">Nov</text>
      </g>
    </g>
    <g transform="translate(60.66,81.72)">
      <g class="primitive">
        <text text-anchor="middle" dy="0.6em">Dec</text>
      </g>
    </g>
    <g transform="translate(69.56,81.72)">
      <g class="primitive">
        <text text-anchor="middle" dy="0.6em">Jan 2013</text>
      </g>
    </g>
    <g transform="translate(78.46,81.72)">
      <g class="primitive">
        <text text-anchor="middle" dy="0.6em">Feb</text>
      </g>
    </g>
    <g transform="translate(86.49,81.72)">
      <g class="primitive">
        <text text-anchor="middle" dy="0.6em">Mar</text>
      </g>
    </g>
    <g transform="translate(95.39,81.72)">
      <g class="primitive">
        <text text-anchor="middle" dy="0.6em">Apr</text>
      </g>
    </g>
    <g transform="translate(104,81.72)">
      <g class="primitive">
        <text text-anchor="middle" dy="0.6em">May</text>
      </g>
    </g>
    <g transform="translate(112.9,81.72)">
      <g class="primitive">
        <text text-anchor="middle" dy="0.6em">Jun</text>
      </g>
    </g>
    <g transform="translate(121.51,81.72)">
      <g class="primitive">
        <text text-anchor="middle" dy="0.6em">Jul</text>
      </g>
    </g>
    <g transform="translate(130.4,81.72)">
      <g class="primitive">
        <text text-anchor="middle" dy="0.6em">Aug</text>
      </g>
    </g>
  </g>
  <g clip-path="url(#img-4096eb31-4)">
    <g id="img-4096eb31-5">
      <g pointer-events="visible" fill="#000000" fill-opacity="0.000" stroke="#000000" stroke-opacity="0.000" class="guide background" id="img-4096eb31-6">
        <g transform="translate(78.03,42.86)" id="img-4096eb31-7">
          <path d="M-58.39,-37.86 L 58.39 -37.86 58.39 37.86 -58.39 37.86 z" class="primitive"/>
        </g>
      </g>
      <g class="guide ygridlines xfixed" stroke-dasharray="0.5,0.5" stroke-width="0.2" stroke="#D0D0E0" id="img-4096eb31-8">
        <g transform="translate(78.03,78.71)" id="img-4096eb31-9">
          <path fill="none" d="M-58.39,0 L 58.39 0" class="primitive"/>
        </g>
        <g transform="translate(78.03,60.79)" id="img-4096eb31-10">
          <path fill="none" d="M-58.39,0 L 58.39 0" class="primitive"/>
        </g>
        <g transform="translate(78.03,42.86)" id="img-4096eb31-11">
          <path fill="none" d="M-58.39,0 L 58.39 0" class="primitive"/>
        </g>
        <g transform="translate(78.03,24.93)" id="img-4096eb31-12">
          <path fill="none" d="M-58.39,0 L 58.39 0" class="primitive"/>
        </g>
        <g transform="translate(78.03,7)" id="img-4096eb31-13">
          <path fill="none" d="M-58.39,0 L 58.39 0" class="primitive"/>
        </g>
      </g>
      <g class="guide xgridlines yfixed" stroke-dasharray="0.5,0.5" stroke-width="0.2" stroke="#D0D0E0" id="img-4096eb31-14">
        <g transform="translate(25.65,42.86)" id="img-4096eb31-15">
          <path fill="none" d="M0,-37.86 L 0 37.86" class="primitive"/>
        </g>
        <g transform="translate(34.55,42.86)" id="img-4096eb31-16">
          <path fill="none" d="M0,-37.86 L 0 37.86" class="primitive"/>
        </g>
        <g transform="translate(43.16,42.86)" id="img-4096eb31-17">
          <path fill="none" d="M0,-37.86 L 0 37.86" class="primitive"/>
        </g>
        <g transform="translate(52.05,42.86)" id="img-4096eb31-18">
          <path fill="none" d="M0,-37.86 L 0 37.86" class="primitive"/>
        </g>
        <g transform="translate(60.66,42.86)" id="img-4096eb31-19">
          <path fill="none" d="M0,-37.86 L 0 37.86" class="primitive"/>
        </g>
        <g transform="translate(69.56,42.86)" id="img-4096eb31-20">
          <path fill="none" d="M0,-37.86 L 0 37.86" class="primitive"/>
        </g>
        <g transform="translate(78.46,42.86)" id="img-4096eb31-21">
          <path fill="none" d="M0,-37.86 L 0 37.86" class="primitive"/>
        </g>
        <g transform="translate(86.49,42.86)" id="img-4096eb31-22">
          <path fill="none" d="M0,-37.86 L 0 37.86" class="primitive"/>
        </g>
        <g transform="translate(95.39,42.86)" id="img-4096eb31-23">
          <path fill="none" d="M0,-37.86 L 0 37.86" class="primitive"/>
        </g>
        <g transform="translate(104,42.86)" id="img-4096eb31-24">
          <path fill="none" d="M0,-37.86 L 0 37.86" class="primitive"/>
        </g>
        <g transform="translate(112.9,42.86)" id="img-4096eb31-25">
          <path fill="none" d="M0,-37.86 L 0 37.86" class="primitive"/>
        </g>
        <g transform="translate(121.51,42.86)" id="img-4096eb31-26">
          <path fill="none" d="M0,-37.86 L 0 37.86" class="primitive"/>
        </g>
        <g transform="translate(130.4,42.86)" id="img-4096eb31-27">
          <path fill="none" d="M0,-37.86 L 0 37.86" class="primitive"/>
        </g>
      </g>
      <g class="plotpanel" id="img-4096eb31-28">
        <metadata>
          <boundingbox value="19.63166666666666mm 5.0mm 116.78968957064285mm 75.715mm"/>
          <unitbox value="2012-07-11T00:45:02.412 411.15526737781494 35159395175 milliseconds -422.31053475563"/>
        </metadata>
        <g shape-rendering="crispEdges" stroke-width="0.3" id="img-4096eb31-29">
          <g stroke="#000000" stroke-opacity="0.000" class="geometry" fill="#00BFFF" id="img-4096eb31-30">
            <g transform="translate(86.49,69.12)" id="img-4096eb31-31">
              <path d="M-4.04,-9.59 L 4.04 -9.59 4.04 9.59 -4.04 9.59 z" class="primitive"/>
            </g>
            <g transform="translate(34.55,71.81)" id="img-4096eb31-32">
              <path d="M-4.04,-6.9 L 4.04 -6.9 4.04 6.9 -4.04 6.9 z" class="primitive"/>
            </g>
            <g transform="translate(43.16,67.96)" id="img-4096eb31-33">
              <path d="M-4.04,-10.76 L 4.04 -10.76 4.04 10.76 -4.04 10.76 z" class="primitive"/>
            </g>
            <g transform="translate(69.56,68.94)" id="img-4096eb31-34">
              <path d="M-4.04,-9.77 L 4.04 -9.77 4.04 9.77 -4.04 9.77 z" class="primitive"/>
            </g>
            <g transform="translate(95.39,70.29)" id="img-4096eb31-35">
              <path d="M-4.04,-8.43 L 4.04 -8.43 4.04 8.43 -4.04 8.43 z" class="primitive"/>
            </g>
            <g transform="translate(104,67.69)" id="img-4096eb31-36">
              <path d="M-4.04,-11.03 L 4.04 -11.03 4.04 11.03 -4.04 11.03 z" class="primitive"/>
            </g>
            <g transform="translate(121.51,67.96)" id="img-4096eb31-37">
              <path d="M-4.04,-10.76 L 4.04 -10.76 4.04 10.76 -4.04 10.76 z" class="primitive"/>
            </g>
            <g transform="translate(78.46,70.2)" id="img-4096eb31-38">
              <path d="M-4.04,-8.52 L 4.04 -8.52 4.04 8.52 -4.04 8.52 z" class="primitive"/>
            </g>
            <g transform="translate(60.66,44.2)" id="img-4096eb31-39">
              <path d="M-4.04,-34.51 L 4.04 -34.51 4.04 34.51 -4.04 34.51 z" class="primitive"/>
            </g>
            <g transform="translate(112.9,67.06)" id="img-4096eb31-40">
              <path d="M-4.04,-11.65 L 4.04 -11.65 4.04 11.65 -4.04 11.65 z" class="primitive"/>
            </g>
            <g transform="translate(52.05,66.25)" id="img-4096eb31-41">
              <path d="M-4.04,-12.46 L 4.04 -12.46 4.04 12.46 -4.04 12.46 z" class="primitive"/>
            </g>
            <g transform="translate(25.65,64.73)" id="img-4096eb31-42">
              <path d="M-4.04,-13.98 L 4.04 -13.98 4.04 13.98 -4.04 13.98 z" class="primitive"/>
            </g>
            <g transform="translate(130.4,77.46)" id="img-4096eb31-43">
              <path d="M-4.04,-1.26 L 4.04 -1.26 4.04 1.26 -4.04 1.26 z" class="primitive"/>
            </g>
          </g>
        </g>
      </g>
    </g>
  </g>
  <g class="guide ylabels" font-size="2.82" font-family="'PT Sans Caption','Helvetica Neue','Helvetica',sans-serif" fill="#6C606B" id="img-4096eb31-44">
    <g transform="translate(18.63,78.71)" id="img-4096eb31-45">
      <g class="primitive">
        <text text-anchor="end" dy="0.35em">0</text>
      </g>
    </g>
    <g transform="translate(18.63,60.79)" id="img-4096eb31-46">
      <g class="primitive">
        <text text-anchor="end" dy="0.35em">100</text>
      </g>
    </g>
    <g transform="translate(18.63,42.86)" id="img-4096eb31-47">
      <g class="primitive">
        <text text-anchor="end" dy="0.35em">200</text>
      </g>
    </g>
    <g transform="translate(18.63,24.93)" id="img-4096eb31-48">
      <g class="primitive">
        <text text-anchor="end" dy="0.35em">300</text>
      </g>
    </g>
    <g transform="translate(18.63,7)" id="img-4096eb31-49">
      <g class="primitive">
        <text text-anchor="end" dy="0.35em">400</text>
      </g>
    </g>
  </g>
  <g font-size="3.88" font-family="'PT Sans','Helvetica Neue','Helvetica',sans-serif" fill="#564A55" stroke="#000000" stroke-opacity="0.000" id="img-4096eb31-50">
    <g transform="translate(8.81,40.86)" id="img-4096eb31-51">
      <g class="primitive">
        <text text-anchor="middle" dy="0.35em" transform="rotate(-90,0, 2)">Number of Sales</text>
      </g>
    </g>
  </g>
</g>
<defs>
  <clipPath id="img-4096eb31-4">
    <path d="M19.63,5 L 136.42 5 136.42 80.72 19.63 80.72" />
  </clipPath>
</defs>
</svg>
